<svg width="80" height="70" viewBox="0 0 80 70" fill="none" xmlns="http://www.w3.org/2000/svg">
<path d="M46.4769 26.4747C46.4769 23.0208 44.2562 21.1141 40.3559 21.1141H33.1815V32.2416H39.2313C43.9004 32.2259 46.4769 30.163 46.4769 26.4747ZM72.5979 24.4742C71.2456 19.645 71.0463 13.7218 71.2029 9.14267C71.3594 4.37598 67.9715 0 63.4164 0H16.6121C12.0427 0 8.66904 4.39161 8.82562 9.14267C8.96797 13.7218 8.78292 19.645 7.4306 24.4742C6.06406 29.319 3.77224 32.3822 0 32.7729V37.2271C3.75801 37.6178 6.06406 40.681 7.4306 45.5258C8.78292 50.355 8.98221 56.2782 8.82562 60.8573C8.66904 65.624 12.0569 70 16.6121 70H63.4021C67.9715 70 71.3452 65.6084 71.1886 60.8573C71.0463 56.2782 71.2313 50.355 72.5836 45.5258C73.9502 40.681 76.242 37.6178 80 37.2271V32.7729C76.2562 32.3822 73.9502 29.319 72.5979 24.4742ZM41.7367 53.6213H27.8007V16.3787H41.6655C47.8292 16.3787 51.8719 20.0357 51.8719 25.662C51.8719 29.616 49.153 33.148 45.6797 33.7575V33.9607C50.4057 34.5233 53.5801 38.1179 53.5801 43.0721C53.5801 49.6517 49.1246 53.6213 41.7367 53.6213ZM40.3132 36.6332H33.1815V48.8859H40.6263C45.4947 48.8859 48.0712 46.7448 48.0712 42.7127C48.0712 38.6961 45.4235 36.6332 40.3132 36.6332Z" fill="black"/>
</svg>
