<svg width="285" height="91" viewBox="0 0 285 91" fill="none" xmlns="http://www.w3.org/2000/svg">
<path d="M100.991 33.298C103.43 33.298 105.632 33.829 107.599 34.891C109.566 35.9136 111.1 37.4673 112.201 39.552C113.342 41.6366 113.912 44.1736 113.912 47.163V66.22H108.602V47.93C108.602 44.7046 107.796 42.2463 106.183 40.555C104.57 38.8243 102.368 37.959 99.575 37.959C96.743 37.959 94.4814 38.844 92.79 40.614C91.138 42.384 90.312 44.9603 90.312 48.343V66.22H84.943V22.56H90.312V38.49C91.374 36.838 92.8294 35.5596 94.678 34.655C96.566 33.7503 98.6704 33.298 100.991 33.298ZM152.182 48.815C152.182 49.8376 152.123 50.9193 152.005 52.06H126.163C126.36 55.246 127.442 57.7436 129.408 59.553C131.414 61.323 133.833 62.208 136.665 62.208C138.986 62.208 140.913 61.677 142.447 60.615C144.021 59.5136 145.122 58.0583 145.751 56.249H151.533C150.668 59.3563 148.937 61.8933 146.341 63.86C143.745 65.7873 140.52 66.751 136.665 66.751C133.597 66.751 130.844 66.0626 128.405 64.686C126.006 63.3093 124.118 61.3623 122.741 58.845C121.365 56.2883 120.676 53.3383 120.676 49.995C120.676 46.6516 121.345 43.7213 122.682 41.204C124.02 38.6866 125.888 36.7593 128.287 35.422C130.726 34.0453 133.519 33.357 136.665 33.357C139.733 33.357 142.447 34.0256 144.807 35.363C147.167 36.7003 148.977 38.549 150.235 40.909C151.533 43.2296 152.182 45.865 152.182 48.815ZM146.636 47.694C146.636 45.6486 146.184 43.8983 145.279 42.443C144.375 40.9483 143.136 39.8273 141.562 39.08C140.028 38.2933 138.317 37.9 136.429 37.9C133.715 37.9 131.395 38.7653 129.467 40.496C127.579 42.2266 126.498 44.626 126.222 47.694H146.636ZM164.638 22.56V66.22H159.269V22.56H164.638ZM203.289 48.815C203.289 49.8376 203.23 50.9193 203.112 52.06H177.27C177.466 55.246 178.548 57.7436 180.515 59.553C182.521 61.323 184.94 62.208 187.772 62.208C190.092 62.208 192.02 61.677 193.554 60.615C195.127 59.5136 196.228 58.0583 196.858 56.249H202.64C201.774 59.3563 200.044 61.8933 197.448 63.86C194.852 65.7873 191.626 66.751 187.772 66.751C184.704 66.751 181.95 66.0626 179.512 64.686C177.112 63.3093 175.224 61.3623 173.848 58.845C172.471 56.2883 171.783 53.3383 171.783 49.995C171.783 46.6516 172.451 43.7213 173.789 41.204C175.126 38.6866 176.994 36.7593 179.394 35.422C181.832 34.0453 184.625 33.357 187.772 33.357C190.84 33.357 193.554 34.0256 195.914 35.363C198.274 36.7003 200.083 38.549 201.342 40.909C202.64 43.2296 203.289 45.865 203.289 48.815ZM197.743 47.694C197.743 45.6486 197.29 43.8983 196.386 42.443C195.481 40.9483 194.242 39.8273 192.669 39.08C191.135 38.2933 189.424 37.9 187.536 37.9C184.822 37.9 182.501 38.7653 180.574 40.496C178.686 42.2266 177.604 44.626 177.329 47.694H197.743ZM226.129 33.298C230.062 33.298 233.248 34.4976 235.687 36.897C238.125 39.257 239.345 42.679 239.345 47.163V66.22H234.035V47.93C234.035 44.7046 233.228 42.2463 231.616 40.555C230.003 38.8243 227.8 37.959 225.008 37.959C222.176 37.959 219.914 38.844 218.223 40.614C216.571 42.384 215.745 44.9603 215.745 48.343V66.22H210.376V33.888H215.745V38.49C216.807 36.838 218.242 35.5596 220.052 34.655C221.9 33.7503 223.926 33.298 226.129 33.298ZM246.109 49.936C246.109 46.632 246.778 43.741 248.115 41.263C249.452 38.7456 251.281 36.7986 253.602 35.422C255.962 34.0453 258.578 33.357 261.449 33.357C264.281 33.357 266.739 33.9666 268.824 35.186C270.909 36.4053 272.462 37.9393 273.485 39.788V33.888H278.913V66.22H273.485V60.202C272.423 62.09 270.83 63.6633 268.706 64.922C266.621 66.1413 264.183 66.751 261.39 66.751C258.519 66.751 255.923 66.043 253.602 64.627C251.281 63.211 249.452 61.2246 248.115 58.668C246.778 56.1113 246.109 53.2006 246.109 49.936ZM273.485 49.995C273.485 47.5563 272.993 45.4323 272.01 43.623C271.027 41.8136 269.689 40.437 267.998 39.493C266.346 38.5096 264.517 38.018 262.511 38.018C260.505 38.018 258.676 38.49 257.024 39.434C255.372 40.378 254.054 41.7546 253.071 43.564C252.088 45.3733 251.596 47.4973 251.596 49.936C251.596 52.414 252.088 54.5773 253.071 56.426C254.054 58.2353 255.372 59.6316 257.024 60.615C258.676 61.559 260.505 62.031 262.511 62.031C264.517 62.031 266.346 61.559 267.998 60.615C269.689 59.6316 271.027 58.2353 272.01 56.426C272.993 54.5773 273.485 52.4336 273.485 49.995Z" fill="white"/>
<path d="M37.0094 33.8292L33.8345 37.0042L59.0994 62.2691L62.2743 59.0942L37.0094 33.8292Z" fill="white"/>
<path d="M54.49 63.51C48.49 63.51 43.65 61.79 40.03 58.38C34.35 53.03 33.11 44.87 33.03 38.96V38.51C33.03 37.43 33.03 36.35 33.15 35.29L33.29 33.36L35.22 33.22C36.49 33.12 37.7 33.08 38.93 33.1C44.82 33.1 52.99 34.39 58.33 40.1C61.77 43.65 63.5 48.51 63.5 54.51C63.5 55.28 63.5 56.09 63.41 56.98C63.3106 58.3649 63.1371 59.7436 62.89 61.11L62.62 62.65L61.08 62.92C59.71 63.17 58.33 63.34 56.98 63.45C56.1334 63.49 55.3034 63.51 54.49 63.51ZM37.56 37.56C37.56 37.87 37.56 38.17 37.56 38.48V38.94C37.56 43.94 38.56 50.85 43.11 55.11C46.28 58.11 50.83 59.37 56.65 58.94C57.34 58.89 58.03 58.81 58.73 58.72C58.82 58.02 58.89 57.32 58.95 56.64C59.01 55.96 59 55.16 59 54.51C59 49.72 57.69 45.9 55.09 43.14C50.83 38.63 43.93 37.63 38.9 37.59L37.56 37.56Z" fill="white"/>
<path d="M11.7494 8.57631L8.57446 11.7512L33.8394 37.0161L37.0143 33.8412L11.7494 8.57631Z" fill="white"/>
<path d="M32.4 37.78H31.88C25.98 37.78 17.82 36.49 12.47 30.78C9.05996 27.16 7.32996 22.2999 7.32996 16.33C7.32996 15.5599 7.32996 14.75 7.41996 13.86C7.52996 12.48 7.69996 11.1099 7.94996 9.72995L8.21996 8.18995L9.75996 7.91995C11.1165 7.67416 12.485 7.50059 13.86 7.39995C20.99 6.86995 26.69 8.55995 30.86 12.3999C36.53 17.74 37.78 25.91 37.86 31.8099V32.2899C37.86 33.3699 37.86 34.45 37.74 35.51L37.52 37.51L35.59 37.65C34.5 37.74 33.45 37.78 32.4 37.78ZM12.12 12.12C12.02 12.82 11.95 13.52 11.9 14.2C11.85 14.88 11.82 15.69 11.82 16.36C11.82 21.15 13.14 24.97 15.74 27.73C20 32.25 26.89 33.24 31.92 33.28H33.28C33.28 32.97 33.28 32.6699 33.28 32.3599V31.9C33.28 26.9 32.28 19.99 27.72 15.7299C24.57 12.7599 20 11.5099 14.2 11.8999C13.51 11.9499 12.82 12.03 12.12 12.12Z" fill="white"/>
<path d="M33.8308 33.8379L8.56592 59.1028L11.7408 62.2777L37.0058 37.0128L33.8308 33.8379Z" fill="white"/>
<path d="M16.36 63.51C15.59 63.51 14.76 63.51 13.88 63.43C12.4987 63.3223 11.1236 63.1454 9.76001 62.9L8.22001 62.63L8.00001 61.08C7.75001 59.7 7.58001 58.33 7.47001 56.98C6.94001 49.85 8.64001 44.15 12.47 40.03C17.82 34.36 25.98 33.11 31.89 33.03H32.37C33.44 33.03 34.52 33.03 35.59 33.15L37.52 33.29L37.66 35.22C37.76 36.49 37.8 37.7 37.78 38.93C37.73 44.83 36.48 52.99 30.78 58.34C27.19 61.78 22.33 63.51 16.36 63.51ZM12.12 58.73C12.82 58.82 13.51 58.9 14.2 58.95C14.89 59 15.69 59.03 16.36 59.03C21.15 59.03 24.97 57.71 27.72 55.11C32.24 50.85 33.24 43.96 33.28 38.93C33.28 38.47 33.28 38.02 33.28 37.57H31.9C26.9 37.57 19.99 38.57 15.73 43.13C12.73 46.29 11.47 50.84 11.9 56.66C12 57.33 12 58.02 12.12 58.72V58.73Z" fill="white"/>
<path d="M59.0909 8.56076L33.8259 33.8257L37.0008 37.0006L62.2658 11.7357L59.0909 8.56076Z" fill="white"/>
<path d="M38.47 37.7801C37.4 37.7801 36.31 37.7801 35.26 37.6601L33.33 37.5101L33.18 35.5801C33.09 34.3001 33.05 33.0901 33.06 31.8701C33.06 25.9701 34.36 17.8101 40.06 12.4601C43.67 9.06008 48.54 7.33008 54.51 7.33008C55.28 7.33008 56.11 7.33008 56.98 7.41008C58.3647 7.51714 59.7431 7.69403 61.11 7.94008L62.65 8.21008L62.92 9.75008C63.1651 11.1067 63.3387 12.4752 63.44 13.8501C63.97 20.9801 62.28 26.6801 58.44 30.8001C53 36.5101 44.86 37.7301 39 37.7801H38.47ZM37.56 33.2801H38.94C43.94 33.2801 50.84 32.2801 55.1 27.7201C58.1 24.5601 59.37 20.0101 58.94 14.1901C58.88 13.5101 58.81 12.8101 58.72 12.1101C58.02 12.0201 57.32 11.9401 56.63 11.8901C55.94 11.8401 55.15 11.8201 54.48 11.8201C49.69 11.8201 45.87 13.1301 43.11 15.7301C38.59 19.9901 37.6 26.8801 37.55 31.9201C37.55 32.3801 37.55 32.8301 37.56 33.2801Z" fill="white"/>
<path d="M13 35.4201C10.928 36.9962 8.42132 37.8969 5.82 38.0001C3.64121 37.8343 1.58599 36.9232 0 35.4201C1.58139 33.9296 3.62381 33.0231 5.79 32.8501C8.40106 32.9417 10.9197 33.8394 13 35.4201Z" fill="white"/>
<path d="M57.87 35.4201C59.943 33.8457 62.4491 32.9452 65.05 32.8401C67.2164 33.0197 69.2578 33.9293 70.84 35.4201C69.26 36.9126 67.2168 37.8195 65.05 37.9901C62.56 38.0701 60 36.8801 57.87 35.4201Z" fill="white"/>
<path d="M35.42 12.97C33.95 10.81 32.76 8.27 32.84 5.79C33.013 3.62381 33.9195 1.58139 35.41 0C36.9105 1.57674 37.8247 3.62048 38 5.79C37.8911 8.3902 36.991 10.8952 35.42 12.97Z" fill="white"/>
<path d="M35.42 57.8799C36.9994 59.9463 37.9006 62.4509 38 65.0499C37.831 67.2171 36.9239 69.2608 35.43 70.8399C33.9361 69.2608 33.029 67.2171 32.86 65.0499C32.9568 62.4537 33.8506 59.9503 35.42 57.8799Z" fill="white"/>
</svg>
