<svg width="70" height="70" viewBox="0 0 70 70" fill="none" xmlns="http://www.w3.org/2000/svg">
<path d="M34.9841 70C33.9344 70 32.869 69.7501 31.9447 69.2778L22.2782 64.2079C20.837 63.4856 21.5419 63.2357 22.012 63.0966C23.9388 62.4993 24.3305 62.3745 26.3828 61.3326C26.6023 61.2217 26.8843 61.263 27.1035 61.3883L34.5296 65.2913C34.796 65.43 35.1717 65.43 35.4225 65.2913L64.3594 50.4841C64.626 50.3451 64.798 50.0674 64.798 49.7897V20.1756C64.798 19.8839 64.626 19.62 64.344 19.4674L35.4227 4.67404C35.1564 4.53511 34.7962 4.53511 34.5298 4.67404L5.62426 19.4811C5.34209 19.62 5.16993 19.8977 5.16993 20.1895V49.7897C5.16993 50.0674 5.34209 50.3451 5.62426 50.4704L13.5519 54.5263C17.8604 56.4291 20.4923 54.1929 20.4923 51.929V22.7035C20.4923 22.2869 20.8682 21.9675 21.3385 21.9675H25.0045C25.4589 21.9675 25.8504 22.2869 25.8504 22.7035V51.9428C25.8504 57.0265 22.7169 59.9435 17.2808 59.9435C15.6042 59.9435 14.2882 59.9435 10.6222 58.3323L3.03938 54.4569C1.15925 53.4983 0 51.7065 0 49.776V20.1756C0 18.2588 1.15925 16.4531 3.03938 15.4947L31.9447 0.687525C33.7777 -0.229175 36.2062 -0.229175 38.0235 0.687525L66.9608 15.5084C68.8407 16.4668 70 18.2587 70 20.1895V49.7897C70 51.7065 68.8407 53.4983 66.9608 54.4707L38.0235 69.2778C37.0991 69.7501 36.0491 70 34.9841 70ZM58.3438 40.8167C58.3438 35.2744 54.1136 33.8021 45.2306 32.7604C36.2374 31.7047 35.3289 31.1629 35.3289 29.3017C35.3289 27.76 36.0967 25.7041 42.7551 25.7041C48.6931 25.7041 50.8865 26.8431 51.795 30.3992C51.8734 30.7324 52.2184 30.9824 52.6095 30.9824H56.3702C56.6048 30.9824 56.8241 30.8992 56.981 30.7463C57.1379 30.5936 57.216 30.3852 57.1999 30.1767C56.6206 24.0513 52.0299 21.2037 42.7551 21.2037C34.4987 21.2037 29.5794 24.2874 29.5794 29.4685C29.5794 35.08 34.4829 36.636 42.3946 37.3301C51.8734 38.1499 52.6095 39.3861 52.6095 41.039C52.6095 43.9007 50.0092 45.1227 43.9147 45.1227C36.2536 45.1227 34.577 43.4142 34.013 40.0391C33.9503 39.678 33.6055 39.4141 33.1828 39.4141H29.4381C28.9682 39.4141 28.6081 39.7475 28.6081 40.15C28.6081 44.4703 31.2558 49.6235 43.9305 49.6235C53.0797 49.6095 58.3438 46.4003 58.3438 40.8167Z" fill="#539E43"/>
</svg>
