<svg width="70" height="70" viewBox="0 0 70 70" fill="none" xmlns="http://www.w3.org/2000/svg">
<path d="M20.8206 69.958C19.5497 69.958 18.4283 69.6499 17.4813 69.0338C13.9053 66.7093 12.6593 60.0158 14.167 51.1238C15.4005 43.8281 18.4158 35.2582 22.6647 26.9823C26.8387 18.8605 31.8476 11.7189 36.7942 6.88781C39.6849 4.05917 42.613 1.9867 45.2545 0.894459C48.1328 -0.295809 50.6248 -0.295809 52.4439 0.880456C56.1695 3.289 57.403 10.6827 55.6586 20.1488C54.4251 26.8703 51.4845 34.9781 47.3727 43.0019C42.9868 51.5439 38.2521 58.4334 33.6792 62.9284C30.7138 65.8411 27.6611 67.9696 24.8701 69.0758C23.4123 69.6639 22.0417 69.958 20.8206 69.958ZM23.948 27.8225L25.2439 28.6627C21.2193 36.5045 18.2414 44.9204 17.0951 51.7539C15.712 59.9457 17.0452 64.8749 18.964 66.1211C19.4375 66.4292 20.0605 66.5972 20.8206 66.5972C23.3001 66.5972 27.2001 64.8328 31.7106 60.4078C36.0342 56.1649 40.5571 49.5554 44.7811 41.3356C48.7433 33.6198 51.5593 25.8621 52.7305 19.4906C54.3628 10.5706 52.9548 5.10941 50.9487 3.80711C49.927 3.14897 48.2699 3.23298 46.2763 4.05917C43.9712 5.01138 41.367 6.8738 38.7505 9.43638C34.053 14.0294 29.256 20.863 25.2439 28.6767L23.948 27.8225Z" fill="#00D8FF"/>
<path d="M35.0125 41.9517C38.4669 41.9517 41.2674 38.8045 41.2674 34.9222C41.2674 31.0398 38.4669 27.8926 35.0125 27.8926C31.558 27.8926 28.7576 31.0398 28.7576 34.9222C28.7576 38.8045 31.558 41.9517 35.0125 41.9517Z" fill="#00D8FF"/>
<path d="M35.0125 51.0257C26.2282 51.0257 18.5529 49.8634 12.8088 47.6509C9.0833 46.2226 5.91848 44.3182 3.66323 42.1477C1.27092 39.8512 0 37.3446 0 34.9221C0 30.273 4.53542 25.722 12.1485 22.7533C18.3784 20.3168 26.5023 18.9585 35 18.9585C43.3482 18.9585 51.3599 20.2748 57.5525 22.6833C61.1784 24.0836 64.231 25.9041 66.3991 27.9205C68.754 30.133 70 32.5556 70 34.9221C70 39.7532 64.9288 44.6403 56.7551 47.679C50.9737 49.8354 43.2485 51.0257 35.0125 51.0257ZM35.0125 22.3193C26.9509 22.3193 18.9765 23.6355 13.1452 25.9181C6.14276 28.6627 3.00285 32.4155 3.00285 34.9221C3.00285 37.5267 6.3795 41.6296 13.7807 44.4722C19.2132 46.5587 26.5646 47.665 35.0125 47.665C42.937 47.665 50.3257 46.5447 55.8206 44.4862C63.5084 41.6156 67.0221 37.5127 67.0221 34.9221C67.0221 33.5918 66.125 32.0234 64.4927 30.4971C62.6112 28.7327 59.8701 27.1223 56.5931 25.848C50.6995 23.5795 43.0367 22.3193 35.0125 22.3193Z" fill="#00D8FF"/>
<path d="M49.2043 70C45.8152 70 41.5166 67.7035 37.031 63.3625C32.0221 58.5174 26.926 51.3058 22.6647 43.03C18.4781 34.9081 15.4877 26.4642 14.2293 19.2246C13.4941 14.9957 13.3571 11.1168 13.8305 7.99408C14.3539 4.59132 15.5874 2.16877 17.419 0.978502C21.1321 -1.44404 27.4493 1.04852 33.8786 7.47596C38.4389 12.027 43.2236 18.9445 47.3478 26.9543C51.7462 35.4963 54.6992 43.5481 55.8704 50.2416C56.6305 54.5826 56.7551 58.6155 56.2193 61.8922C55.6461 65.379 54.3503 67.8575 52.4813 69.0758C51.5468 69.692 50.4379 70 49.2043 70ZM25.2563 41.3496C29.2933 49.1913 34.3022 56.2909 38.9872 60.814C44.6066 66.2472 49.0673 67.4234 50.9986 66.1632C53.0046 64.8609 54.4749 59.5257 52.9548 50.8997C51.8334 44.5703 49.005 36.8686 44.7686 28.6487C40.7939 20.933 36.2211 14.3095 31.8975 9.99653C25.8419 3.94717 20.9327 2.58886 18.9267 3.89116C17.905 4.5493 17.1449 6.21568 16.7836 8.56821C16.3724 11.2848 16.497 14.7576 17.1698 18.5805C18.366 25.456 21.2318 33.5358 25.2563 41.3496Z" fill="#00D8FF"/>
</svg>
