<svg width="70" height="70" viewBox="0 0 70 70" fill="none" xmlns="http://www.w3.org/2000/svg">
<g clip-path="url(#clip0_17_35)">
<path d="M35.0003 11.6666C30.2124 11.6666 26.0961 12.9589 22.8651 15.7284C19.6573 18.4779 17.5588 22.4806 16.3947 27.4697C16.1406 28.5586 16.6946 29.6746 17.7156 30.1305C18.7365 30.5864 19.9373 30.254 20.5785 29.338C22.0561 27.2272 23.5314 25.9588 24.9489 25.3079C26.3218 24.6775 27.8016 24.5498 29.4966 25.0038C31.2071 25.462 32.5312 26.8038 34.61 29.0647L34.6772 29.1378C36.2442 30.8422 38.1557 32.9214 40.7703 34.5346C43.4833 36.2085 46.8594 37.3332 51.3338 37.3332C56.1213 37.3332 60.2378 36.041 63.469 33.2715C66.6764 30.522 68.775 26.5192 69.9393 21.5301C70.1932 20.4413 69.6393 19.3253 68.6182 18.8694C67.5976 18.4135 66.3964 18.7459 65.7552 19.6618C64.2777 21.7727 62.8026 23.041 61.3849 23.692C60.0119 24.3223 58.5321 24.4501 56.8372 23.9961C55.1269 23.5379 53.8025 22.196 51.7239 19.9351L51.6567 19.862C50.0897 18.1576 48.1782 16.0784 45.5636 14.4653C42.8506 12.7913 39.4745 11.6666 35.0003 11.6666Z" fill="black"/>
<path d="M18.6669 32.6666C13.8791 32.6666 9.76281 33.9589 6.53175 36.7284C3.32393 39.4779 1.22543 43.4806 0.0613037 48.4699C-0.19276 49.5586 0.361276 50.6744 1.3822 51.1303C2.40313 51.5863 3.60395 51.254 4.24514 50.3379C5.72273 48.2272 7.19805 46.9588 8.6156 46.3079C9.98844 45.6775 11.4682 45.5498 13.1632 46.0038C14.8737 46.462 16.1979 47.8039 18.2767 50.0649L18.3438 50.1377C19.9108 51.842 21.8225 53.9215 24.437 55.5347C27.15 57.2087 30.526 58.3333 35.0003 58.3333C39.7881 58.3333 43.9044 57.0411 47.1357 54.2715C50.3431 51.5219 52.4417 47.5193 53.606 42.5301C53.8599 41.4413 53.3059 40.3253 52.2849 39.8693C51.2643 39.4135 50.0631 39.7459 49.4219 40.6618C47.9444 42.7727 46.4692 44.041 45.0516 44.6919C43.6788 45.3223 42.199 45.4501 40.504 44.9961C38.7935 44.5379 37.4694 43.196 35.3906 40.9351L35.3234 40.862C33.7564 39.1576 31.8448 37.0784 29.2302 35.4652C26.5173 33.7913 23.1412 32.6666 18.6669 32.6666Z" fill="black"/>
</g>
<defs>
<clipPath id="clip0_17_35">
<rect width="70" height="70" fill="white"/>
</clipPath>
</defs>
</svg>
